<svg width="169" height="31" viewBox="0 0 169 31" fill="none" xmlns="http://www.w3.org/2000/svg">
<path d="M7.26739 25.3394C5.30133 25.3394 3.75657 24.9268 2.63311 24.1018C1.5272 23.2592 0.94792 22.1006 0.895258 20.6261H4.18665C4.23931 21.1176 4.5114 21.5652 5.00291 21.969C5.49443 22.3727 6.26681 22.5746 7.32005 22.5746C8.19775 22.5746 8.89114 22.4166 9.40021 22.1006C9.92683 21.7847 10.1901 21.3546 10.1901 20.8104C10.1901 20.3364 9.98827 19.959 9.58453 19.6782C9.19834 19.3973 8.53128 19.213 7.58336 19.1252L6.31947 18.9936C4.72205 18.818 3.49326 18.3616 2.63311 17.6243C1.77296 16.8871 1.34289 15.904 1.34289 14.6753C1.34289 13.6922 1.58864 12.8672 2.08016 12.2001C2.57167 11.5331 3.2475 11.0328 4.10765 10.6993C4.98536 10.3482 5.98594 10.1726 7.1094 10.1726C8.86481 10.1726 10.2867 10.5588 11.375 11.3312C12.4634 12.1036 13.0339 13.2358 13.0866 14.7279H9.79518C9.76007 14.2364 9.51431 13.8151 9.0579 13.464C8.6015 13.1129 7.94322 12.9374 7.08307 12.9374C6.31069 12.9374 5.71385 13.0866 5.29255 13.385C4.87126 13.6834 4.66061 14.0696 4.66061 14.5436C4.66061 15 4.82737 15.3511 5.1609 15.5968C5.51198 15.8426 6.07371 16.0094 6.84609 16.0971L8.10998 16.2288C9.79518 16.4043 11.1117 16.8695 12.0597 17.6243C13.0251 18.3792 13.5079 19.3973 13.5079 20.6787C13.5079 21.6267 13.2446 22.4517 12.7179 23.1539C12.2089 23.8385 11.4891 24.3739 10.5588 24.7601C9.62841 25.1463 8.53128 25.3394 7.26739 25.3394ZM21.4027 25.3394C19.7526 25.3394 18.4711 24.7952 17.5583 23.7068C16.6631 22.6185 16.2154 21.0035 16.2154 18.8619V10.5676H19.8755V19.1779C19.8755 20.0556 20.1212 20.7577 20.6127 21.2844C21.1043 21.7934 21.7713 22.048 22.6139 22.048C23.4565 22.048 24.1411 21.7759 24.6677 21.2317C25.2119 20.6875 25.484 19.9503 25.484 19.0199V10.5676H29.144V24.8917H26.2476V18.8092H26.5372C26.5372 20.2487 26.3529 21.4511 25.9843 22.4166C25.6157 23.3821 25.0627 24.1106 24.3254 24.6021C23.5882 25.0936 22.6666 25.3394 21.5607 25.3394H21.4027ZM33.3484 24.8917V10.5939H36.2448V16.6501H36.1658C36.1658 14.5963 36.6046 13.0427 37.4823 11.9895C38.36 10.9362 39.6503 10.4096 41.353 10.4096H41.8796V13.5957H40.8791C39.6503 13.5957 38.6936 13.9292 38.009 14.5963C37.3419 15.2458 37.0084 16.1937 37.0084 17.44V24.8917H33.3484ZM44.7477 24.8917V10.2516C44.7477 8.61909 45.1953 7.41664 46.0906 6.64426C47.0034 5.85433 48.3463 5.45936 50.1192 5.45936H51.9097V8.27679H49.8559C49.3117 8.27679 48.8904 8.426 48.592 8.72442C48.3112 9.00528 48.1707 9.40903 48.1707 9.93565V24.8917H44.7477ZM42.9572 13.5167V10.8309H52.1467V13.5167H42.9572ZM63.0453 24.8917V20.6524H62.4397V15.9391C62.4397 15.1141 62.2378 14.4997 61.8341 14.096C61.4304 13.6922 60.8072 13.4903 59.9646 13.4903C59.5257 13.4903 58.9991 13.4991 58.3847 13.5167C57.7703 13.5342 57.1472 13.5606 56.5152 13.5957C55.9008 13.6132 55.3479 13.6396 54.8564 13.6747V10.5676C55.2601 10.5325 55.7165 10.4974 56.2256 10.4623C56.7346 10.4272 57.2525 10.4096 57.7791 10.4096C58.3233 10.3921 58.8324 10.3833 59.3063 10.3833C60.7809 10.3833 62.0009 10.5764 62.9663 10.9626C63.9494 11.3488 64.6866 11.9544 65.1782 12.7794C65.6872 13.6045 65.9418 14.684 65.9418 16.0181V24.8917H63.0453ZM58.4374 25.2604C57.4017 25.2604 56.4889 25.076 55.6989 24.7074C54.9266 24.3388 54.321 23.8121 53.8821 23.1275C53.4608 22.4429 53.2502 21.6179 53.2502 20.6524C53.2502 19.5992 53.5047 18.739 54.0138 18.072C54.5404 17.4049 55.2689 16.9046 56.1992 16.5711C57.1472 16.2376 58.2531 16.0708 59.517 16.0708H62.8347V18.2563H59.4643C58.6217 18.2563 57.9722 18.4669 57.5158 18.8882C57.0769 19.292 56.8575 19.8186 56.8575 20.4681C56.8575 21.1176 57.0769 21.6442 57.5158 22.048C57.9722 22.4517 58.6217 22.6536 59.4643 22.6536C59.9734 22.6536 60.4386 22.5658 60.8598 22.3903C61.2987 22.1972 61.6586 21.8812 61.9394 21.4423C62.2378 20.9859 62.4046 20.3715 62.4397 19.5992L63.335 20.6261C63.2472 21.6267 63.0014 22.4693 62.5977 23.1539C62.2115 23.8385 61.6673 24.3651 60.9652 24.7337C60.2806 25.0848 59.438 25.2604 58.4374 25.2604ZM76.208 25.392C74.9617 25.392 73.8821 25.1814 72.9693 24.7601C72.074 24.3388 71.3192 23.777 70.7048 23.0749C70.108 22.3727 69.6603 21.5828 69.3619 20.7051C69.0635 19.8274 68.9143 18.9321 68.9143 18.0193V17.519C68.9143 16.5535 69.0635 15.6319 69.3619 14.7542C69.6779 13.859 70.1431 13.0691 70.7575 12.3844C71.3719 11.6823 72.1267 11.1293 73.0219 10.7256C73.9348 10.3043 74.988 10.0936 76.1817 10.0936C77.428 10.0936 78.5427 10.3394 79.5257 10.8309C80.5088 11.3049 81.2899 11.9719 81.8692 12.8321C82.466 13.6922 82.7996 14.6928 82.8698 15.8338H79.3151C79.2273 15.0965 78.9113 14.4822 78.3672 13.9906C77.8405 13.4991 77.112 13.2534 76.1817 13.2534C75.3742 13.2534 74.6984 13.4465 74.1542 13.8327C73.6276 14.2188 73.2326 14.7542 72.9693 15.4389C72.706 16.1059 72.5743 16.8783 72.5743 17.756C72.5743 18.5986 72.6972 19.3622 72.943 20.0468C73.2063 20.7314 73.6012 21.2668 74.1279 21.653C74.672 22.0392 75.3654 22.2323 76.208 22.2323C76.84 22.2323 77.3841 22.1182 77.8405 21.89C78.2969 21.6618 78.6568 21.3458 78.9201 20.9421C79.201 20.5383 79.3765 20.0819 79.4467 19.5728H83.0014C82.9312 20.7314 82.5889 21.7495 81.9745 22.6272C81.3777 23.4874 80.579 24.1632 79.5784 24.6547C78.5954 25.1463 77.4719 25.392 76.208 25.392ZM92.3319 25.392C91.1031 25.392 90.0235 25.1814 89.0932 24.7601C88.1804 24.3388 87.4168 23.777 86.8024 23.0749C86.2055 22.3552 85.7491 21.5564 85.4332 20.6787C85.1347 19.801 84.9855 18.9058 84.9855 17.993V17.4927C84.9855 16.5448 85.1347 15.6319 85.4332 14.7542C85.7491 13.859 86.2055 13.0691 86.8024 12.3844C87.4168 11.6823 88.1716 11.1293 89.0668 10.7256C89.9621 10.3043 90.9978 10.0936 92.1739 10.0936C93.7187 10.0936 95.0089 10.4359 96.0446 11.1206C97.0978 11.7876 97.8878 12.6741 98.4144 13.78C98.941 14.8683 99.2043 16.0445 99.2043 17.3084V18.6249H86.5391V16.3868H96.9135L95.7813 17.4927C95.7813 16.5799 95.6496 15.7987 95.3863 15.1492C95.123 14.4997 94.7193 13.9994 94.1751 13.6483C93.6485 13.2973 92.9814 13.1217 92.1739 13.1217C91.3664 13.1217 90.6818 13.306 90.1201 13.6747C89.5584 14.0433 89.1283 14.5787 88.8299 15.2809C88.549 15.9655 88.4086 16.7905 88.4086 17.756C88.4086 18.6512 88.549 19.45 88.8299 20.1521C89.1107 20.8367 89.5408 21.3809 90.1201 21.7847C90.6994 22.1708 91.4366 22.3639 92.3319 22.3639C93.2272 22.3639 93.9557 22.1884 94.5174 21.8373C95.0791 21.4687 95.439 21.021 95.597 20.4944H98.9673C98.7567 21.4775 98.353 22.3376 97.7561 23.0749C97.1593 23.8121 96.3957 24.3827 95.4653 24.7864C94.5525 25.1901 93.508 25.392 92.3319 25.392Z" fill="black"/>
<rect x="102.975" width="66.0251" height="30.8925" rx="3.63441" fill="#2F64EE"/>
<path d="M109.752 24.9463V5.72457H113.412V24.9463H109.752ZM107.962 8.46301V5.72457H113.412V8.46301H107.962ZM126.254 24.9463V20.707H125.648V15.9937C125.648 15.1687 125.446 14.5543 125.042 14.1505C124.639 13.7468 124.016 13.5449 123.173 13.5449C122.734 13.5449 122.207 13.5537 121.593 13.5712C120.979 13.5888 120.355 13.6151 119.724 13.6502C119.109 13.6678 118.556 13.6941 118.065 13.7292V10.6222C118.468 10.5871 118.925 10.5519 119.434 10.5168C119.943 10.4817 120.461 10.4642 120.987 10.4642C121.532 10.4466 122.041 10.4378 122.515 10.4378C123.989 10.4378 125.209 10.6309 126.175 11.0171C127.158 11.4033 127.895 12.0089 128.386 12.834C128.896 13.659 129.15 14.7386 129.15 16.0727V24.9463H126.254ZM121.646 25.3149C120.61 25.3149 119.697 25.1306 118.907 24.762C118.135 24.3933 117.529 23.8667 117.09 23.1821C116.669 22.4975 116.458 21.6725 116.458 20.707C116.458 19.6537 116.713 18.7936 117.222 18.1265C117.749 17.4595 118.477 16.9592 119.408 16.6257C120.355 16.2921 121.461 16.1254 122.725 16.1254H126.043V18.3108H122.673C121.83 18.3108 121.181 18.5215 120.724 18.9428C120.285 19.3465 120.066 19.8732 120.066 20.5227C120.066 21.1722 120.285 21.6988 120.724 22.1025C121.181 22.5063 121.83 22.7081 122.673 22.7081C123.182 22.7081 123.647 22.6204 124.068 22.4448C124.507 22.2517 124.867 21.9358 125.148 21.4969C125.446 21.0405 125.613 20.4261 125.648 19.6537L126.543 20.6806C126.456 21.6812 126.21 22.5238 125.806 23.2084C125.42 23.893 124.876 24.4197 124.173 24.7883C123.489 25.1394 122.646 25.3149 121.646 25.3149ZM141.47 25.4202C140.294 25.4202 139.258 25.1745 138.363 24.683C137.468 24.1739 136.766 23.4366 136.257 22.4712C135.748 21.5057 135.467 20.3383 135.414 18.9691H135.967V24.9463H133.071V5.72457H136.731V15.3354L135.756 16.8363C135.827 15.3618 136.116 14.133 136.625 13.1499C137.152 12.1669 137.854 11.4296 138.732 10.9381C139.609 10.4466 140.601 10.2009 141.707 10.2009C142.69 10.2009 143.585 10.3852 144.393 10.7538C145.2 11.1225 145.894 11.6403 146.473 12.3074C147.052 12.9569 147.491 13.7205 147.79 14.5982C148.106 15.4759 148.264 16.4326 148.264 17.4683V18.0212C148.264 19.0569 148.106 20.0224 147.79 20.9176C147.474 21.8129 147.017 22.6028 146.42 23.2874C145.824 23.9545 145.104 24.4811 144.261 24.8673C143.436 25.2359 142.506 25.4202 141.47 25.4202ZM140.654 22.3395C141.444 22.3395 142.128 22.1464 142.708 21.7602C143.305 21.3565 143.77 20.8123 144.103 20.1277C144.437 19.4431 144.604 18.6532 144.604 17.7579C144.604 16.8451 144.437 16.0551 144.103 15.3881C143.77 14.721 143.305 14.2032 142.708 13.8346C142.128 13.4659 141.444 13.2816 140.654 13.2816C139.934 13.2816 139.267 13.4396 138.653 13.7556C138.056 14.0715 137.564 14.5367 137.178 15.1511C136.81 15.7655 136.625 16.5028 136.625 17.3629V18.4162C136.625 19.2412 136.818 19.9434 137.205 20.5227C137.591 21.1019 138.091 21.5496 138.705 21.8655C139.32 22.1815 139.969 22.3395 140.654 22.3395ZM156.669 25.3939C154.703 25.3939 153.158 24.9814 152.035 24.1564C150.929 23.3138 150.35 22.1552 150.297 20.6806H153.588C153.641 21.1722 153.913 21.6198 154.404 22.0235C154.896 22.4273 155.668 22.6292 156.722 22.6292C157.599 22.6292 158.293 22.4712 158.802 22.1552C159.328 21.8392 159.592 21.4091 159.592 20.865C159.592 20.391 159.39 20.0136 158.986 19.7327C158.6 19.4519 157.933 19.2675 156.985 19.1798L155.721 19.0481C154.124 18.8726 152.895 18.4162 152.035 17.6789C151.175 16.9416 150.744 15.9586 150.744 14.7298C150.744 13.7468 150.99 12.9217 151.482 12.2547C151.973 11.5876 152.649 11.0873 153.509 10.7538C154.387 10.4027 155.388 10.2272 156.511 10.2272C158.266 10.2272 159.688 10.6134 160.777 11.3858C161.865 12.1581 162.435 13.2904 162.488 14.7825H159.197C159.162 14.291 158.916 13.8697 158.459 13.5186C158.003 13.1675 157.345 12.992 156.485 12.992C155.712 12.992 155.115 13.1412 154.694 13.4396C154.273 13.738 154.062 14.1242 154.062 14.5982C154.062 15.0546 154.229 15.4056 154.562 15.6514C154.914 15.8972 155.475 16.0639 156.248 16.1517L157.512 16.2834C159.197 16.4589 160.513 16.9241 161.461 17.6789C162.427 18.4337 162.909 19.4519 162.909 20.7333C162.909 21.6812 162.646 22.5063 162.12 23.2084C161.61 23.893 160.891 24.4284 159.96 24.8146C159.03 25.2008 157.933 25.3939 156.669 25.3939Z" fill="white"/>
</svg>
